<?xml version="1.0" encoding="utf-8"?>
<!-- Generator: Adobe Illustrator 23.0.1, SVG Export Plug-In . SVG Version: 6.00 Build 0)  -->
<svg version="1.1" id="Layer_1" xmlns="http://www.w3.org/2000/svg" xmlns:xlink="http://www.w3.org/1999/xlink" x="0px" y="0px"
	 viewBox="0 0 89.55 132.53" style="enable-background:new 0 0 89.55 132.53;" xml:space="preserve">
<style type="text/css">
	.st0{fill:#73879c;}
</style>
<g>
	<polygon class="st0" points="44.78,0 4.89,23.03 4.89,69.09 35,86.47 39.89,83.65 39.89,78 14.67,63.44 14.67,28.68 44.78,11.29 
		69.99,25.85 44.78,40.41 54.56,46.06 89.55,25.85 	"/>
	<polygon class="st0" points="49.67,48.88 49.67,54.53 74.88,69.09 74.88,103.85 44.78,121.23 19.56,106.67 44.78,92.12 35,86.47 
		0,106.67 44.78,132.53 84.66,109.5 84.66,63.44 54.56,46.06 	"/>
	<polygon class="st0" points="49.67,89.29 49.67,54.53 49.67,48.88 54.56,46.06 44.78,40.41 39.89,43.23 39.89,78 39.89,83.64 
		35,86.47 44.78,92.12 	"/>
</g>
</svg>
